<?xml version="1.0" encoding="UTF-8" standalone="no"?>
<svg
   id="Capa_2"
   data-name="Capa 2"
   viewBox="0 0 1139.46 476.95"
   version="1.1"
   sodipodi:docname="Logo.svg"
   inkscape:export-filename="FrioCheckDark.svg"
   inkscape:export-xdpi="96"
   inkscape:export-ydpi="96"
   inkscape:version="1.4.2 (ebf0e940d0, 2025-05-08)"
   xmlns:inkscape="http://www.inkscape.org/namespaces/inkscape"
   xmlns:sodipodi="http://sodipodi.sourceforge.net/DTD/sodipodi-0.dtd"
   xmlns="http://www.w3.org/2000/svg"
   xmlns:svg="http://www.w3.org/2000/svg">
  <sodipodi:namedview
     id="namedview14"
     pagecolor="#ffffff"
     bordercolor="#000000"
     borderopacity="0.25"
     inkscape:showpageshadow="2"
     inkscape:pageopacity="0.0"
     inkscape:pagecheckerboard="0"
     inkscape:deskcolor="#d1d1d1"
     inkscape:zoom="0.35312338"
     inkscape:cx="464.42691"
     inkscape:cy="370.97516"
     inkscape:window-width="1366"
     inkscape:window-height="644"
     inkscape:window-x="0"
     inkscape:window-y="0"
     inkscape:window-maximized="1"
     inkscape:current-layer="text39" />
  <defs
     id="defs1">
    <style
       id="style1">
      .cls-1 {
        fill: #f0760b;
      }

      .cls-2 {
        fill: #061128;
      }
    </style>
  </defs>
  <g
     id="text39"
     style="font-size:240px;line-height:1.2;-inkscape-font-specification:sans-serif;letter-spacing:3.14px;display:inline;fill:#f0760b"
     aria-label="Check"
     inkscape:export-filename="FrioCheckLight.svg"
     inkscape:export-xdpi="96"
     inkscape:export-ydpi="96">
    <path
       id="path21"
       style="fill:#f0760b;fill-opacity:1"
       inkscape:transform-center-x="-0.007578947"
       inkscape:transform-center-y="-0.40379172"
       d="M 561.25586 -1.3535156 C 547.1726 -1.3535156 535.75586 -12.770256 535.75586 -26.853516 C 535.75586 -40.00242 535.80672 -41.008567 555.9043 -85.066406 C 558.44019 -90.625592 562.67424 -90.681855 565.35156 -85.189453 C 587.01179 -40.754544 586.75586 -40.019553 586.75586 -26.853516 C 586.75586 -12.770256 575.33912 -1.3535156 561.25586 -1.3535156 z M 655.54102 -54.646484 C 651.43051 -54.753242 647.28796 -55.858084 643.47656 -58.058594 C 632.08928 -64.633046 631.24119 -65.179351 603.13477 -104.61328 C 599.58832 -109.58903 601.65868 -113.28499 607.75391 -112.85742 C 657.06578 -109.39827 657.57444 -108.80958 668.97656 -102.22656 C 681.17302 -95.184933 685.35022 -79.58904 678.30859 -67.392578 C 673.46747 -59.007511 664.58412 -54.411617 655.54102 -54.646484 z M 468.30664 -56.958984 C 459.26354 -56.724117 450.37823 -61.320011 445.53711 -69.705078 C 438.49548 -81.90154 442.67463 -97.497433 454.87109 -104.53906 C 466.25838 -111.11351 467.15538 -111.57336 515.35938 -116.19727 C 521.44172 -116.78071 523.60735 -113.141 520.18945 -108.07617 C 492.53781 -67.100411 491.77322 -66.954112 480.37109 -60.371094 C 476.5597 -58.170584 472.41714 -57.065742 468.30664 -56.958984 z M 562.07422 -108.08008 A 27.26 27.26 0 0 1 534.81445 -135.33984 A 27.26 27.26 0 0 1 562.07422 -162.59961 A 27.26 27.26 0 0 1 589.33594 -135.33984 A 27.26 27.26 0 0 1 562.07422 -108.08008 z M 608.72852 -155.23047 C 603.4914 -155.16823 601.78986 -158.66383 604.99414 -163.41211 C 632.64579 -204.38787 633.40842 -204.53417 644.81055 -211.11719 C 657.00701 -218.15882 672.6029 -213.97966 679.64453 -201.7832 C 686.68616 -189.58674 682.50701 -173.99085 670.31055 -166.94922 C 658.92326 -160.37477 658.02821 -159.91493 609.82422 -155.29102 C 609.44407 -155.25455 609.07766 -155.23462 608.72852 -155.23047 z M 518.52344 -158.59766 C 518.17432 -158.59286 517.81064 -158.60414 517.42969 -158.63086 C 468.11781 -162.09001 467.60915 -162.6787 456.20703 -169.26172 C 444.01057 -176.30335 439.83142 -191.89924 446.87305 -204.0957 C 453.91468 -216.29216 469.51057 -220.47132 481.70703 -213.42969 C 493.09432 -206.85524 493.94045 -206.30893 522.04688 -166.875 C 525.37167 -162.21024 523.76016 -158.6696 518.52344 -158.59766 z M 564.60742 -182.2168 C 562.89688 -182.19462 561.16874 -183.55263 559.83008 -186.29883 C 538.16985 -230.73374 538.42773 -231.46873 538.42773 -244.63477 C 538.42773 -258.71803 549.84447 -270.13477 563.92773 -270.13477 C 578.011 -270.13477 589.42773 -258.71803 589.42773 -244.63477 C 589.42773 -231.48586 589.37687 -230.47971 569.2793 -186.42188 C 568.01135 -183.64228 566.31796 -182.23898 564.60742 -182.2168 z "
       transform="scale(1,-1)" />
    <path
       style="font-weight:bold;font-family:'Liberation Sans';-inkscape-font-specification:'Liberation Sans'"
       d="m 499.02127,448.50128 q 31.28906,0 43.47656,-31.40625 l 30.11719,11.36719 q -9.72656,23.90625 -28.59375,35.625 -18.75,11.60156 -45,11.60156 -39.84375,0 -61.64062,-22.5 -21.67969,-22.61719 -21.67969,-63.16406 0,-40.66406 20.97656,-62.46094 20.97656,-21.79687 60.82031,-21.79687 29.0625,0 47.34375,11.71875 18.28125,11.60156 25.66407,34.21875 l -30.46875,8.32031 q -3.86719,-12.42188 -15.23438,-19.6875 -11.25,-7.38281 -26.60156,-7.38281 -23.4375,0 -35.625,14.53125 -12.07031,14.53125 -12.07031,42.53906 0,28.47656 12.42187,43.47656 12.53906,15 36.09375,15 z"
       id="path39" />
    <path
       style="font-weight:bold;font-size:226.667px"
       d="m 633.77093,336.21149 q 0,9.06668 -0.68,17.45336 -0.45333,8.38668 -0.90667,11.78669 h 1.81334 q 5.89334,-9.52002 15.18669,-13.82669 9.29334,-4.30667 20.6267,-4.30667 20.17336,0 32.18671,10.88001 12.24002,10.65335 12.24002,34.45339 v 80.69345 h -33.77339 v -72.30677 q 0,-26.74671 -19.94669,-26.74671 -15.18669,0 -21.08003,10.65335 -5.66668,10.42668 -5.66668,30.14671 v 58.25342 H 599.99755 V 301.07811 h 33.77338 z m 169.28683,11.10669 q 25.61337,0 40.57339,14.73335 14.96003,14.50669 14.96003,41.48006 v 16.32003 h -79.78679 q 0.45333,14.28002 8.38668,22.44003 8.16001,8.16001 22.44003,8.16001 12.01335,0 21.76003,-2.26667 9.74669,-2.49333 20.17337,-7.48001 v 26.06671 q -9.06668,4.53334 -19.2667,6.57334 -9.97335,2.26667 -24.25337,2.26667 -18.58669,0 -32.86671,-6.80001 -14.28003,-7.02668 -22.44004,-21.08003 -8.16001,-14.05335 -8.16001,-35.36005 0,-21.76004 7.25334,-36.04006 7.48002,-14.50669 20.6267,-21.76003 13.14669,-7.25334 30.60005,-7.25334 z m 0.22667,24.0267 q -9.74669,0 -16.32003,6.34667 -6.34668,6.34668 -7.48001,19.72003 h 47.3734 q -0.22666,-11.33335 -5.89334,-18.58669 -5.66667,-7.48001 -17.68002,-7.48001 z"
       id="path40" />
    <path
       style="font-weight:bold;font-size:226.667px;font-family:'Liberation Sans';-inkscape-font-specification:'Liberation Sans Bold'"
       d="m 937.22007,475.55858 q -27.2266,0 -42.05736,-16.15888 -14.83075,-16.26956 -14.83075,-45.267 0,-29.6615 14.94143,-46.15241 14.94143,-16.60159 42.38939,-16.60159 21.13935,0 34.97401,10.62502 13.83466,10.62501 17.37633,29.32947 l -31.32166,1.54948 q -1.32813,-9.18621 -6.64064,-14.6094 -5.31251,-5.53386 -15.0521,-5.53386 -24.01697,0 -24.01697,40.17584 0,41.39329 24.45967,41.39329 8.85418,0 14.83076,-5.53386 5.97657,-5.64454 7.41537,-16.71226 l 31.21099,1.4388 q -1.66016,12.28518 -8.85418,21.9141 -7.08335,9.62892 -18.70446,14.94143 -11.62111,5.20183 -26.11983,5.20183 z"
       id="path41" />
    <path
       style="font-weight:bold;font-size:240px;line-height:1.2;-inkscape-font-specification:sans-serif;letter-spacing:-3.14px;fill:#ffffff;fill-opacity:1"
       d="M 40.357177,473.28137 H 4.5971771 v -171.36 H 102.75718 v 29.76 H 40.357177 v 44.16 h 58.08 v 29.76 h -58.08 z"
       id="path43" />
    <path
       style="font-weight:bold;font-size:213.333px;line-height:1.2;-inkscape-font-specification:sans-serif;letter-spacing:-3.14px;fill:#ffffff;fill-opacity:1"
       d="m 193.32366,354.66823 q 2.34667,0 5.54666,0.21333 3.2,0.21333 5.11999,0.64 l -2.34666,29.86662 q -1.49333,-0.42667 -4.47999,-0.64 -2.77333,-0.42667 -4.90666,-0.42667 -8.10666,0 -15.57331,2.98667 -7.46666,2.77332 -12.15998,9.17331 -4.47999,6.39999 -4.47999,17.49331 v 59.30657 H 128.2571 V 356.80156 h 24.10663 l 4.69332,19.62663 h 1.49333 q 5.12,-8.95998 14.07998,-15.35997 8.95999,-6.39999 20.6933,-6.39999 z"
       id="path44" />
    <path
       style="font-weight:bold;font-size:213.333px;line-height:1.2;font-family:'Liberation Sans';-inkscape-font-specification:'Liberation Sans Bold';letter-spacing:-3.14px;fill:#ffffff;fill-opacity:1"
       d="M 220.43454,473.28137 V 360.57322 h 29.27079 V 473.28137 Z M 217.20538,350.0524 v -3.22916 l 26.24996,-29.99995 h 26.87495 v 4.47916 l -35.41661,28.74995 z"
       id="path45" />
    <path
       style="font-weight:bold;font-size:213.333px;line-height:1.2;-inkscape-font-specification:sans-serif;letter-spacing:-3.14px;fill:#ffffff;fill-opacity:1"
       d="m 383.91427,414.82813 q 0,29.01329 -15.35997,44.79993 -15.14664,15.78664 -41.3866,15.78664 -16.21331,0 -29.01329,-7.03999 -12.58665,-7.03999 -19.83997,-20.47996 -7.25332,-13.65332 -7.25332,-33.06662 0,-29.01328 15.14664,-44.58659 15.14665,-15.57331 41.59994,-15.57331 16.42664,0 29.01328,7.03999 12.58665,7.03999 19.83997,20.47996 7.25332,13.22665 7.25332,32.63995 z m -80.42653,0 q 0,17.27997 5.54665,26.23996 5.75999,8.74665 18.55997,8.74665 12.58665,0 18.13331,-8.74665 5.75999,-8.95999 5.75999,-26.23996 0,-17.27997 -5.75999,-25.81329 -5.54666,-8.74665 -18.34664,-8.74665 -12.58665,0 -18.34664,8.74665 -5.54665,8.53332 -5.54665,25.81329 z"
       id="path46" />
    <path
       style="font-weight:bold;font-size:226.667px"
       d="m 1052.1326,378.14489 q 0,7.02668 -0.68,14.05335 -0.4534,6.80001 -1.1334,13.82669 h 0.4534 q 3.4,-4.76001 7.0267,-9.52001 3.6266,-4.98668 7.7066,-9.29335 l 34.6801,-37.62672 h 38.08 l -49.1867,53.72008 52.1334,70.0401 h -38.9867 l -35.5867,-50.09341 -14.5067,11.56002 v 38.53339 h -33.7734 V 301.07811 h 33.7734 z"
       id="path42" />
  </g>
</svg>